<?xml version="1.0" encoding="UTF-8" standalone="no"?>
<svg
   xmlns:dc="http://purl.org/dc/elements/1.1/"
   xmlns:cc="http://creativecommons.org/ns#"
   xmlns:rdf="http://www.w3.org/1999/02/22-rdf-syntax-ns#"
   xmlns:svg="http://www.w3.org/2000/svg"
   xmlns="http://www.w3.org/2000/svg"
   xmlns:sodipodi="http://sodipodi.sourceforge.net/DTD/sodipodi-0.dtd"
   xmlns:inkscape="http://www.inkscape.org/namespaces/inkscape"
   width="600mm"
   height="297mm"
   viewBox="0 0 600 297"
   version="1.1"
   id="svg8"
   sodipodi:docname="Logo-CriptoNews.svg"
   inkscape:version="1.0.2 (e86c870879, 2021-01-15, custom)"
   inkscape:export-filename="C:\Users\somaisumpouquinhohd\Desktop\logocomtxt.png"
   inkscape:export-xdpi="96"
   inkscape:export-ydpi="96">
  <defs
     id="defs2">
    <rect
       x="679.71057"
       y="-14.630541"
       width="71.323891"
       height="41.453201"
       id="rect845" />
  </defs>
  <sodipodi:namedview
     id="base"
     pagecolor="#ffffff"
     bordercolor="#666666"
     borderopacity="1.0"
     inkscape:pageopacity="0.0"
     inkscape:pageshadow="2"
     inkscape:zoom="0.2170118"
     inkscape:cx="1029.858"
     inkscape:cy="784.9991"
     inkscape:document-units="mm"
     inkscape:current-layer="layer1"
     inkscape:document-rotation="0"
     showgrid="false"
     inkscape:window-width="1366"
     inkscape:window-height="715"
     inkscape:window-x="1912"
     inkscape:window-y="315"
     inkscape:window-maximized="1"
     units="mm"
     width="400mm" />
  <metadata
     id="metadata5">
    <rdf:RDF>
      <cc:Work
         rdf:about="">
        <dc:format>image/svg+xml</dc:format>
        <dc:type
           rdf:resource="http://purl.org/dc/dcmitype/StillImage" />
        <dc:title />
      </cc:Work>
    </rdf:RDF>
  </metadata>
  <g
     inkscape:label="Layer 1"
     inkscape:groupmode="layer"
     id="layer1">
    <rect
       style="opacity:0.998;fill:#008efa;fill-opacity:1;stroke-width:0"
       id="rect873"
       width="597.41376"
       height="297.48767"
       x="1.2192119"
       y="1.2192122" />
    <g
       id="g1584"
       transform="translate(17.604814)">
      <text
         xml:space="preserve"
         style="font-style:normal;font-weight:normal;font-size:101.055px;line-height:0.75;font-family:sans-serif;text-align:center;text-anchor:middle;fill:#ffffff;fill-opacity:1;stroke:none;stroke-width:2.52638"
         x="387.70926"
         y="145.90416"
         id="text1195-3"
         inkscape:export-filename="C:\Users\gabri\Desktop\Trabalho Interdisciplinar\CriptoNews\img\logocomtxt300.png"
         inkscape:export-xdpi="16.980124"
         inkscape:export-ydpi="16.980124"><tspan
           sodipodi:role="line"
           id="tspan1193-3"
           x="387.70926"
           y="145.90416"
           style="font-style:normal;font-variant:normal;font-weight:normal;font-stretch:normal;font-family:Staatliches;-inkscape-font-specification:Staatliches;text-align:center;text-anchor:middle;fill:#ffffff;stroke-width:2.52638">CRIPTO</tspan><tspan
           sodipodi:role="line"
           x="387.70926"
           y="224.45728"
           style="font-style:normal;font-variant:normal;font-weight:normal;font-stretch:normal;font-family:Staatliches;-inkscape-font-specification:Staatliches;text-align:center;text-anchor:middle;fill:#ffffff;stroke-width:2.52638"
           id="tspan1197-7">NEWS</tspan></text>
      <g
         id="g1587"
         transform="translate(-1466.7117,25.159169)"
         inkscape:export-filename="C:\Users\gabri\Desktop\Trabalho Interdisciplinar\CriptoNews\img\logocomtxt300.png"
         inkscape:export-xdpi="16.980124"
         inkscape:export-ydpi="16.980124">
        <circle
           style="fill:#008efa;fill-opacity:1;stroke:none;stroke-width:4.8063;stroke-linecap:square;stroke-opacity:1;paint-order:markers stroke fill"
           id="path34-0-6-2"
           sodipodi:type="arc"
           sodipodi:cx="1625.3047"
           sodipodi:cy="124.80388"
           sodipodi:rx="85.738068"
           sodipodi:ry="86.169098"
           sodipodi:start="5.3965406"
           sodipodi:end="5.3925438"
           sodipodi:open="true"
           sodipodi:arc-type="arc"
           inkscape:export-filename="C:\Users\gabri\Desktop\Trabalho Interdisciplinar\imagens\logo.png"
           inkscape:export-xdpi="79.359985"
           inkscape:export-ydpi="79.359985"
           d="M 1679.4925,58.026661 A 85.738068,86.169098 0 0 1 1691.802,179.19736 85.738068,86.169098 0 0 1 1571.2498,191.6898 85.738068,86.169098 0 0 1 1558.6994,70.544065 85.738068,86.169098 0 0 1 1679.2265,57.809528" />
        <circle
           style="opacity:1;fill:#00457a;fill-opacity:1;stroke-width:0;stroke-miterlimit:4;stroke-dasharray:none"
           id="circle1464"
           cx="1625.3047"
           cy="124.80388"
           r="100.65168" />
        <path
           id="text1201-1"
           style="font-size:65.5202px;line-height:0.65;font-family:Staatliches;-inkscape-font-specification:Staatliches;fill:#004bfa;fill-opacity:0.707641;stroke-width:1.638"
           d="m 1619.8768,38.803959 a 85.738067,86.169097 0 0 0 -6.29,0.636137 v 2.485118 c -2.1403,0.655203 -3.9314,1.900092 -5.3731,3.734657 -1.3976,1.790885 -2.0965,3.909078 -2.0965,6.355167 0,2.227686 0.4589,4.23717 1.3761,6.028055 0.961,1.790885 2.4677,3.254229 4.5207,4.389914 1.0483,0.567841 2.184,1.179311 3.407,1.834512 1.2231,0.655204 2.1188,1.157444 2.6867,1.506887 1.7035,0.960961 2.5549,2.118571 2.5549,3.472656 0,1.048321 -0.3931,2.009423 -1.1793,2.883027 -0.7426,0.829924 -1.6817,1.244886 -2.8174,1.244886 -1.092,0 -2.0526,-0.414962 -2.8824,-1.244886 -0.7863,-0.873604 -1.1796,-1.878603 -1.1796,-3.014287 v -2.489769 c 0,-0.174723 -0.065,-0.262001 -0.1964,-0.262001 h -5.9624 c -0.1747,0 -0.262,0.08728 -0.262,0.262001 v 2.489769 c 0,2.402409 0.6988,4.565018 2.0965,6.486946 1.4415,1.87824 3.2544,3.14456 5.4385,3.79977 v 1.07486 c -0.086,0.0366 -0.1313,0.11322 -0.1313,0.23565 v 3.80028 c -2.1403,0.65521 -3.9314,1.90009 -5.3728,3.73466 -1.3978,1.79088 -2.0965,3.90908 -2.0965,6.35517 0,2.22768 0.4589,4.23717 1.3761,6.028052 0.961,1.79089 2.4674,3.25423 4.5207,4.38992 1.0482,0.56784 2.184,1.17931 3.4068,1.83451 1.223,0.65521 2.1187,1.15745 2.6866,1.50689 1.7038,0.96096 2.5552,2.11857 2.5552,3.47266 0,1.04832 -0.3931,2.00942 -1.1793,2.88302 -0.7427,0.82993 -1.682,1.24489 -2.8174,1.24489 -1.092,0 -2.0526,-0.41496 -2.8825,-1.24489 -0.7863,-0.8736 -1.1798,-1.87808 -1.1798,-3.01376 v -2.48978 c 0,-0.17472 -0.065,-0.26251 -0.1964,-0.26251 h -5.9624 c -0.1747,0 -0.262,0.0878 -0.262,0.26251 v 2.48978 c 0,2.4024 0.6988,4.5645 2.0965,6.48642 1.4415,1.87825 3.2544,3.14457 5.4385,3.79977 v 1.07487 c -0.086,0.0366 -0.1313,0.11322 -0.1313,0.23564 v 3.80029 c -2.1403,0.6552 -3.9314,1.90009 -5.3728,3.73465 -1.3978,1.79089 -2.0965,3.9096 -2.0965,6.35569 0,2.22769 0.4589,4.23665 1.3761,6.02754 0.961,1.79088 2.4677,3.25423 4.5207,4.38991 1.0483,0.56784 2.184,1.17931 3.407,1.83451 1.2231,0.65521 2.1188,1.15745 2.6867,1.50689 1.7035,0.96096 2.5549,2.11857 2.5549,3.47265 0,1.04833 -0.3931,2.00943 -1.1793,2.88303 -0.7426,0.82993 -1.6817,1.24489 -2.8174,1.24489 -1.092,0 -2.0526,-0.41496 -2.8825,-1.24489 -0.7863,-0.8736 -1.1798,-1.87808 -1.1798,-3.01377 v -2.48977 c 0,-0.17472 -0.065,-0.26251 -0.1964,-0.26251 h -5.9624 c -0.1747,0 -0.262,0.0878 -0.262,0.26251 v 2.48977 c 0,2.40241 0.6988,4.5645 2.0965,6.48643 1.4415,1.87824 3.2544,3.14457 5.4385,3.79977 v 1.07487 c -0.086,0.0366 -0.1313,0.11321 -0.1313,0.23564 v 3.80029 c -2.1403,0.6552 -3.9314,1.90009 -5.3728,3.73465 -1.3978,1.79089 -2.0965,3.9096 -2.0965,6.35568 0,2.22769 0.4589,4.23666 1.3761,6.02754 0.961,1.79089 2.4677,3.25423 4.5207,4.38992 1.0483,0.56784 2.184,1.17931 3.407,1.83451 1.2231,0.6552 2.1188,1.15745 2.6867,1.50689 1.7035,0.96096 2.5549,2.11857 2.5549,3.47265 0,1.04832 -0.3931,2.00943 -1.1793,2.88303 -0.7426,0.82992 -1.6817,1.24488 -2.8174,1.24488 -1.092,0 -2.0526,-0.41496 -2.8825,-1.24488 -0.7863,-0.8736 -1.1798,-1.87809 -1.1798,-3.01377 v -2.48977 c 0,-0.17472 -0.065,-0.26252 -0.1964,-0.26252 h -5.9624 c -0.1747,0 -0.262,0.0878 -0.262,0.26252 v 2.48977 c 0,2.40241 0.6988,4.5645 2.0965,6.48643 1.4415,1.87824 3.2544,3.14508 5.4385,3.80028 v 3.01067 a 85.738067,86.169097 0 0 0 6.29,0.6258 v -3.7021 c 2.1403,-0.69888 3.8875,-1.94377 5.2415,-3.73465 1.3541,-1.83457 2.0309,-3.99666 2.0309,-6.48643 0,-2.18401 -0.5242,-3.99698 -1.5725,-5.43843 -1.0046,-1.44144 -2.4021,-2.64243 -4.193,-3.60339 l -5.4384,-3.01429 c -1.2668,-0.74256 -2.1401,-1.48469 -2.6205,-2.22726 -0.4805,-0.78624 -0.7209,-1.72539 -0.7209,-2.8174 0,-1.13568 0.371,-2.11873 1.1136,-2.94865 0.7862,-0.82992 1.7254,-1.24489 2.8174,-1.24489 1.0483,0 1.9655,0.39302 2.7518,1.17926 0.8299,0.74256 1.2449,1.74756 1.2449,3.01428 l 0.066,4.3894 c 0,0.13104 0.066,0.19689 0.1969,0.19689 h 6.0275 c 0.131,0 0.1969,-0.0658 0.1969,-0.19689 v -4.3894 c 0,-2.35872 -0.6993,-4.45548 -2.097,-6.29005 -1.3541,-1.83456 -3.0793,-3.07945 -5.1759,-3.73466 v -1.15548 c 0.084,-0.0412 0.1312,-0.1123 0.1312,-0.22066 v -3.86539 c 2.1403,-0.69889 3.8875,-1.94378 5.2415,-3.73466 1.3541,-1.83457 2.0309,-3.99666 2.0309,-6.48643 0,-2.184 -0.5242,-3.99698 -1.5725,-5.43842 -1.0046,-1.44145 -2.4021,-2.64244 -4.193,-3.6034 l -5.4384,-3.01429 c -1.2668,-0.74256 -2.1401,-1.48521 -2.6205,-2.22777 -0.4805,-0.78624 -0.7209,-1.72488 -0.7209,-2.81688 0,-1.13568 0.371,-2.11874 1.1136,-2.94866 0.7862,-0.82992 1.7254,-1.24489 2.8174,-1.24489 1.0483,0 1.9655,0.39302 2.7518,1.17926 0.8299,0.74256 1.2449,1.74757 1.2449,3.01429 l 0.066,4.38939 c 0,0.13104 0.066,0.19689 0.1969,0.19689 h 6.0275 c 0.131,0 0.1969,-0.0658 0.1969,-0.19689 v -4.38939 c 0,-2.35873 -0.6993,-4.45549 -2.097,-6.29006 -1.3541,-1.83456 -3.0793,-3.07945 -5.1759,-3.73465 v -1.15549 c 0.084,-0.0412 0.1312,-0.1123 0.1312,-0.22066 v -3.86539 c 2.1403,-0.69889 3.8875,-1.94377 5.2415,-3.73466 1.3541,-1.83456 2.0309,-3.99666 2.0309,-6.48642 0,-2.18401 -0.5242,-3.99699 -1.5725,-5.43843 -1.0046,-1.44145 -2.4021,-2.64245 -4.193,-3.60341 l -5.4384,-3.014282 c -1.2668,-0.74257 -2.1401,-1.48521 -2.6205,-2.22777 -0.4805,-0.78625 -0.7209,-1.7254 -0.7209,-2.8174 0,-1.13569 0.371,-2.11822 1.1136,-2.94814 0.7862,-0.82993 1.7254,-1.24489 2.8174,-1.24489 1.0483,0 1.9655,0.39302 2.7518,1.17926 0.8299,0.74256 1.2449,1.74704 1.2449,3.01377 l 0.066,4.38991 c 0,0.13104 0.066,0.19689 0.1969,0.19689 h 6.0272 c 0.1313,0 0.1969,-0.0658 0.1969,-0.19689 v -4.38991 c 0,-2.35873 -0.6993,-4.45498 -2.097,-6.28954 -1.3541,-1.83457 -3.0793,-3.07945 -5.1759,-3.73466 v -1.15548 c 0.084,-0.0412 0.1312,-0.11231 0.1312,-0.22066 v -3.8654 c 2.1404,-0.69888 3.8877,-1.94377 5.2418,-3.73465 1.3541,-1.834568 2.0309,-3.997177 2.0309,-6.486946 0,-2.184006 -0.5245,-3.996465 -1.5725,-5.43791 -1.0046,-1.441444 -2.4022,-2.642436 -4.193,-3.603397 l -5.4384,-3.014287 c -1.2671,-0.742563 -2.1403,-1.485209 -2.6205,-2.22777 -0.4805,-0.786244 -0.7209,-1.725396 -0.7209,-2.8174 0,-1.135684 0.371,-2.118217 1.1133,-2.948141 0.7862,-0.829921 1.7254,-1.244886 2.8174,-1.244886 1.0483,0 1.9655,0.393015 2.7518,1.179256 0.8299,0.742564 1.2449,1.747047 1.2449,3.013771 l 0.066,4.389914 c 0,0.13104 0.066,0.196887 0.1969,0.196887 h 6.0275 c 0.131,0 0.1969,-0.06585 0.1969,-0.196887 v -4.389914 c 0,-2.358729 -0.6993,-4.454972 -2.097,-6.289537 -1.3541,-1.834568 -3.0793,-3.079457 -5.1759,-3.734657 z m 18.2799,0.799951 v 2.321304 c -2.1404,0.655203 -3.9312,1.900092 -5.3729,3.734657 -1.3978,1.790885 -2.0965,3.909078 -2.0965,6.355167 0,2.227686 0.4588,4.23717 1.3761,6.028055 0.961,1.790885 2.4677,3.254229 4.5207,4.389914 1.0483,0.567841 2.1839,1.179311 3.407,1.834512 1.223,0.655204 2.1183,1.157444 2.6861,1.506887 1.7036,0.960961 2.5554,2.118571 2.5554,3.472656 0,1.048321 -0.393,2.009423 -1.1792,2.883027 -0.7426,0.829924 -1.6817,1.244886 -2.8174,1.244886 -1.092,0 -2.0531,-0.414962 -2.8831,-1.244886 -0.7862,-0.873604 -1.1792,-1.878603 -1.1792,-3.014287 v -2.489769 c 0,-0.174723 -0.065,-0.262001 -0.1964,-0.262001 h -5.9624 c -0.1747,0 -0.262,0.08728 -0.262,0.262001 v 2.489769 c 0,2.402409 0.6988,4.565018 2.0965,6.486946 1.4414,1.87824 3.2539,3.14456 5.4379,3.79977 v 1.07486 c -0.086,0.0367 -0.1307,0.11343 -0.1307,0.23565 v 3.80028 c -2.1404,0.65521 -3.9314,1.90009 -5.3728,3.73466 -1.3978,1.79088 -2.0965,3.90908 -2.0965,6.35517 0,2.22768 0.4588,4.23717 1.3761,6.028052 0.961,1.79089 2.4677,3.25423 4.5207,4.38992 1.0483,0.56784 2.1839,1.17931 3.407,1.83451 1.223,0.65521 2.1183,1.15745 2.6861,1.50689 1.7036,0.96096 2.5554,2.11857 2.5554,3.47266 0,1.04832 -0.393,2.00942 -1.1792,2.88302 -0.7426,0.82993 -1.6817,1.24489 -2.8174,1.24489 -1.092,0 -2.0531,-0.41496 -2.8831,-1.24489 -0.7862,-0.8736 -1.1792,-1.87808 -1.1792,-3.01376 v -2.48978 c 0,-0.17472 -0.065,-0.26251 -0.1964,-0.26251 h -5.9624 c -0.1747,0 -0.262,0.0878 -0.262,0.26251 v 2.48978 c 0,2.4024 0.6988,4.5645 2.0965,6.48642 1.4414,1.87825 3.2539,3.14457 5.4379,3.79977 v 1.07487 c -0.086,0.0367 -0.1307,0.11342 -0.1307,0.23564 v 3.80029 c -2.1404,0.6552 -3.9314,1.90009 -5.3728,3.73465 -1.3978,1.79089 -2.0965,3.9096 -2.0965,6.35569 0,2.22769 0.4588,4.23665 1.3761,6.02754 0.961,1.79088 2.4677,3.25423 4.5207,4.38991 1.0483,0.56784 2.1839,1.17931 3.407,1.83451 1.223,0.65521 2.1183,1.15745 2.6861,1.50689 1.7036,0.96096 2.5554,2.11857 2.5554,3.47265 0,1.04833 -0.393,2.00943 -1.1792,2.88303 -0.7426,0.82993 -1.6817,1.24489 -2.8174,1.24489 -1.092,0 -2.0531,-0.41496 -2.8831,-1.24489 -0.7862,-0.8736 -1.1792,-1.87808 -1.1792,-3.01377 v -2.48977 c 0,-0.17472 -0.065,-0.26251 -0.1964,-0.26251 h -5.9624 c -0.1747,0 -0.262,0.0878 -0.262,0.26251 v 2.48977 c 0,2.40241 0.6988,4.5645 2.0965,6.48643 1.4414,1.87824 3.2539,3.14457 5.4379,3.79977 v 1.07487 c -0.086,0.0367 -0.1307,0.11342 -0.1307,0.23564 v 3.80029 c -2.1404,0.6552 -3.9314,1.90009 -5.3728,3.73465 -1.3978,1.79089 -2.0965,3.9096 -2.0965,6.35568 0,2.22769 0.4588,4.23666 1.3761,6.02754 0.961,1.79089 2.4677,3.25423 4.5207,4.38992 1.0483,0.56784 2.1839,1.17931 3.407,1.83451 1.223,0.6552 2.1183,1.15745 2.6861,1.50689 1.7036,0.96096 2.5554,2.11857 2.5554,3.47265 0,1.04832 -0.393,2.00943 -1.1792,2.88303 -0.7426,0.82992 -1.6817,1.24488 -2.8174,1.24488 -1.092,0 -2.0531,-0.41496 -2.8831,-1.24488 -0.7862,-0.8736 -1.1792,-1.87809 -1.1792,-3.01377 v -2.48977 c 0,-0.17472 -0.065,-0.26252 -0.1964,-0.26252 h -5.9624 c -0.1747,0 -0.262,0.0878 -0.262,0.26252 v 2.48977 c 0,2.40241 0.6988,4.5645 2.0965,6.48643 1.4414,1.87824 3.2539,3.14508 5.4379,3.80028 v 2.8081 a 85.738067,86.169097 0 0 0 6.2901,-1.2113 v -1.66243 c 2.1403,-0.69888 3.8874,-1.94377 5.2415,-3.73465 1.3541,-1.83457 2.0314,-3.99666 2.0314,-6.48643 0,-2.18401 -0.5242,-3.99698 -1.5725,-5.43843 -1.0046,-1.44144 -2.4027,-2.64243 -4.1936,-3.60339 l -5.4379,-3.01429 c -1.2667,-0.74256 -2.1405,-1.48469 -2.621,-2.22726 -0.4805,-0.78624 -0.7204,-1.72539 -0.7204,-2.8174 0,-1.13568 0.3711,-2.11873 1.1137,-2.94865 0.7862,-0.82992 1.7254,-1.24489 2.8174,-1.24489 1.0483,0 1.9655,0.39302 2.7517,1.17926 0.83,0.74256 1.2449,1.74756 1.2449,3.01428 l 0.066,4.3894 c 0,0.13104 0.065,0.19689 0.1963,0.19689 h 6.0281 c 0.131,0 0.1964,-0.0658 0.1964,-0.19689 v -4.3894 c 0,-2.35872 -0.6988,-4.45548 -2.0966,-6.29005 -1.354,-1.83456 -3.0792,-3.07945 -5.1759,-3.73466 v -1.15548 c 0.084,-0.0412 0.1308,-0.1123 0.1308,-0.22066 v -3.86539 c 2.1403,-0.69889 3.8874,-1.94378 5.2415,-3.73466 1.3541,-1.83457 2.0314,-3.99666 2.0314,-6.48643 0,-2.184 -0.5242,-3.99698 -1.5725,-5.43842 -1.0046,-1.44145 -2.4027,-2.64244 -4.1936,-3.6034 l -5.4379,-3.01429 c -1.2667,-0.74256 -2.1405,-1.48521 -2.621,-2.22777 -0.4805,-0.78624 -0.7204,-1.72488 -0.7204,-2.81688 0,-1.13568 0.3711,-2.11874 1.1137,-2.94866 0.7862,-0.82992 1.7254,-1.24489 2.8174,-1.24489 1.0483,0 1.9655,0.39302 2.7517,1.17926 0.83,0.74256 1.2449,1.74757 1.2449,3.01429 l 0.066,4.38939 c 0,0.13104 0.065,0.19689 0.1963,0.19689 h 6.0281 c 0.131,0 0.1964,-0.0658 0.1964,-0.19689 v -4.38939 c 0,-2.35873 -0.6988,-4.45549 -2.0966,-6.29006 -1.354,-1.83456 -3.0792,-3.07945 -5.1759,-3.73465 v -1.15549 c 0.084,-0.0412 0.1308,-0.1123 0.1308,-0.22066 v -3.86539 c 2.1403,-0.69889 3.8874,-1.94377 5.2415,-3.73466 1.3541,-1.83456 2.0314,-3.99666 2.0314,-6.48642 0,-2.18401 -0.5242,-3.99699 -1.5725,-5.43843 -1.0046,-1.44145 -2.4027,-2.64245 -4.1936,-3.60341 l -5.4379,-3.014282 c -1.2667,-0.74257 -2.1405,-1.48521 -2.621,-2.22777 -0.4805,-0.78625 -0.7204,-1.7254 -0.7204,-2.8174 0,-1.13569 0.3711,-2.11822 1.1137,-2.94814 0.7862,-0.82993 1.7254,-1.24489 2.8174,-1.24489 1.0483,0 1.9655,0.39302 2.7517,1.17926 0.83,0.74256 1.2449,1.74704 1.2449,3.01377 l 0.066,4.38991 c 0,0.13104 0.065,0.19689 0.1963,0.19689 h 6.0281 c 0.131,0 0.1964,-0.0658 0.1964,-0.19689 v -4.38991 c 0,-2.35873 -0.6988,-4.45498 -2.0966,-6.28954 -1.354,-1.83457 -3.0792,-3.07945 -5.1759,-3.73466 v -1.15548 c 0.084,-0.0412 0.1308,-0.11231 0.1308,-0.22066 v -3.8654 c 2.1403,-0.69888 3.8874,-1.94377 5.2415,-3.73465 1.3541,-1.834568 2.0314,-3.997177 2.0314,-6.486946 0,-2.184006 -0.5242,-3.996465 -1.5725,-5.43791 -1.0046,-1.441444 -2.4027,-2.642436 -4.1936,-3.603397 l -5.4379,-3.014287 c -1.2667,-0.742563 -2.1405,-1.485209 -2.621,-2.22777 -0.4805,-0.786244 -0.7204,-1.725396 -0.7204,-2.8174 0,-1.135684 0.3711,-2.118217 1.1137,-2.948141 0.7862,-0.829921 1.7254,-1.244886 2.8174,-1.244886 1.0483,0 1.9655,0.393015 2.7517,1.179256 0.83,0.742564 1.2449,1.747047 1.2449,3.013771 l 0.066,4.389914 c 0,0.13104 0.065,0.196887 0.1963,0.196887 h 6.0281 c 0.131,0 0.1964,-0.06585 0.1964,-0.196887 v -4.389914 c 0,-2.358729 -0.6988,-4.454972 -2.0966,-6.289537 -1.354,-1.834568 -3.0792,-3.079457 -5.1759,-3.734657 V 40.80487 a 85.738067,86.169097 0 0 0 -6.29,-1.20096 z m -40.3305,3.572907 a 85.738067,86.169097 0 0 0 -16.2026,7.477064 c -0.051,0.442013 -0.076,0.895387 -0.076,1.361157 0,2.227686 0.4589,4.23717 1.3762,6.028055 0.9609,1.790885 2.4676,3.254229 4.5206,4.389914 1.0483,0.567841 2.184,1.179311 3.407,1.834512 1.2231,0.655204 2.1189,1.157444 2.6867,1.506887 1.7035,0.960961 2.5554,2.118571 2.5554,3.472656 0,1.048321 -0.3935,2.009423 -1.1798,2.883027 -0.7425,0.829924 -1.6817,1.244886 -2.8174,1.244886 -1.092,0 -2.0526,-0.414962 -2.8825,-1.244886 -0.7862,-0.873604 -1.1792,-1.878603 -1.1792,-3.014287 v -2.489769 c 0,-0.174723 -0.066,-0.262001 -0.1968,-0.262001 h -5.9626 c -0.1747,0 -0.2619,0.08728 -0.2619,0.262001 v 2.489769 c 0,2.402409 0.6987,4.565018 2.0968,6.486946 1.4411,1.87824 3.2544,3.14456 5.4384,3.79977 v 1.07486 c -0.086,0.0367 -0.1313,0.11338 -0.1313,0.23565 v 3.80028 c -2.1404,0.65521 -3.9311,1.90009 -5.3723,3.73466 -1.3977,1.79088 -2.097,3.90908 -2.097,6.35517 0,2.22768 0.4589,4.23717 1.376,6.028052 0.961,1.79089 2.4675,3.25423 4.5208,4.38992 1.048,0.56784 2.1839,1.17931 3.4067,1.83451 1.2231,0.65521 2.1189,1.15745 2.6867,1.50689 1.7037,0.96096 2.5554,2.11857 2.5554,3.47266 0,1.04832 -0.3934,2.00942 -1.1796,2.88302 -0.7427,0.82993 -1.6819,1.24489 -2.8173,1.24489 -1.0921,0 -2.0526,-0.41496 -2.8825,-1.24489 -0.7862,-0.8736 -1.1792,-1.87808 -1.1792,-3.01376 v -2.48978 c 0,-0.17472 -0.066,-0.26251 -0.1969,-0.26251 h -5.9625 c -0.1747,0 -0.2619,0.0878 -0.2619,0.26251 v 2.48978 c 0,2.4024 0.6987,4.5645 2.0965,6.48642 1.4414,1.87825 3.2544,3.14457 5.4384,3.79977 v 1.07487 c -0.086,0.0367 -0.1313,0.11338 -0.1313,0.23564 v 3.80029 c -2.1403,0.6552 -3.9308,1.90009 -5.3723,3.73465 -1.3977,1.79089 -2.097,3.9096 -2.097,6.35569 0,2.22769 0.4589,4.23665 1.3762,6.02754 0.9609,1.79088 2.4676,3.25423 4.5206,4.38991 1.0483,0.56784 2.184,1.17931 3.407,1.83451 1.2231,0.65521 2.1189,1.15745 2.6867,1.50689 1.7035,0.96096 2.5554,2.11857 2.5554,3.47265 0,1.04833 -0.3935,2.00943 -1.1798,2.88303 -0.7425,0.82993 -1.6817,1.24489 -2.8174,1.24489 -1.092,0 -2.0526,-0.41496 -2.8825,-1.24489 -0.7862,-0.8736 -1.1792,-1.87808 -1.1792,-3.01377 v -2.48977 c 0,-0.17472 -0.066,-0.26251 -0.1969,-0.26251 h -5.9625 c -0.1747,0 -0.2619,0.0878 -0.2619,0.26251 v 2.48977 c 0,2.40241 0.6987,4.5645 2.0965,6.48643 1.4414,1.87824 3.2544,3.14457 5.4384,3.79977 v 1.07487 c -0.086,0.0367 -0.1313,0.11338 -0.1313,0.23564 v 3.80029 c -2.1403,0.6552 -3.9308,1.90009 -5.3723,3.73465 -1.3977,1.79089 -2.097,3.9096 -2.097,6.35568 0,2.22769 0.4589,4.23666 1.3762,6.02754 0.9609,1.79089 2.4676,3.25423 4.5206,4.38992 1.0483,0.56784 2.184,1.17931 3.407,1.83451 1.2231,0.6552 2.1189,1.15745 2.6867,1.50689 1.7035,0.96096 2.5554,2.11857 2.5554,3.47265 0,1.04832 -0.3935,2.00943 -1.1798,2.88303 -0.7425,0.82992 -1.6817,1.24488 -2.8174,1.24488 -1.092,0 -2.0526,-0.41496 -2.8825,-1.24488 -0.7862,-0.8736 -1.1792,-1.87809 -1.1792,-3.01377 v -2.48977 c 0,-0.17472 -0.066,-0.26252 -0.1969,-0.26252 h -5.9625 c -0.1747,0 -0.2619,0.0878 -0.2619,0.26252 v 2.48977 c 0,0.74984 0.068,1.47617 0.2041,2.17919 a 85.738067,86.169097 0 0 0 15.5499,7.20473 c 1.2862,-0.71309 2.3907,-1.67832 3.3125,-2.89749 1.3541,-1.83457 2.0309,-3.99666 2.0309,-6.48643 0,-2.18401 -0.5242,-3.99698 -1.5725,-5.43843 -1.0047,-1.44144 -2.4022,-2.64243 -4.1931,-3.60339 l -5.4384,-3.01429 c -1.2667,-0.74256 -2.14,-1.48469 -2.6205,-2.22726 -0.4805,-0.78624 -0.7209,-1.72539 -0.7209,-2.8174 0,-1.13568 0.3716,-2.11873 1.1141,-2.94865 0.7863,-0.82992 1.7249,-1.24489 2.8169,-1.24489 1.0483,0 1.9661,0.39302 2.7523,1.17926 0.8299,0.74256 1.2449,1.74756 1.2449,3.01428 l 0.065,4.3894 c 0,0.13104 0.066,0.19689 0.1969,0.19689 h 6.0275 c 0.1311,0 0.1969,-0.0658 0.1969,-0.19689 v -4.3894 c 0,-2.35872 -0.6987,-4.45548 -2.0965,-6.29005 -1.3541,-1.83456 -3.0798,-3.07945 -5.1764,-3.73466 v -1.15548 c 0.084,-0.0412 0.1312,-0.1123 0.1312,-0.22066 v -3.86539 c 2.1404,-0.69889 3.8875,-1.94378 5.2416,-3.73466 1.3541,-1.83457 2.0309,-3.99666 2.0309,-6.48643 0,-2.184 -0.5242,-3.99698 -1.5725,-5.43842 -1.0047,-1.44145 -2.4022,-2.64244 -4.1931,-3.6034 l -5.4384,-3.01429 c -1.2667,-0.74256 -2.14,-1.48521 -2.6205,-2.22777 -0.4805,-0.78624 -0.7209,-1.72488 -0.7209,-2.81688 0,-1.13568 0.3716,-2.11874 1.1141,-2.94866 0.7863,-0.82992 1.7249,-1.24489 2.8169,-1.24489 1.0483,0 1.9661,0.39302 2.7523,1.17926 0.8299,0.74256 1.2449,1.74757 1.2449,3.01429 l 0.065,4.38939 c 0,0.13104 0.066,0.19689 0.1969,0.19689 h 6.0275 c 0.1311,0 0.1969,-0.0658 0.1969,-0.19689 v -4.38939 c 0,-2.35873 -0.6987,-4.45549 -2.0965,-6.29006 -1.3541,-1.83456 -3.0798,-3.07945 -5.1765,-3.73465 v -1.15549 c 0.084,-0.0412 0.1313,-0.1123 0.1313,-0.22066 v -3.86539 c 2.1404,-0.69889 3.8875,-1.94377 5.2416,-3.73466 1.3541,-1.83456 2.0309,-3.99666 2.0309,-6.48642 0,-2.18401 -0.5243,-3.99699 -1.5725,-5.43843 -1.0047,-1.44145 -2.4022,-2.64245 -4.1931,-3.60341 l -5.4384,-3.014282 c -1.2667,-0.74257 -2.14,-1.48521 -2.6205,-2.22777 -0.4805,-0.78625 -0.7209,-1.7254 -0.7209,-2.8174 0,-1.13569 0.3716,-2.11822 1.1141,-2.94814 0.7863,-0.82993 1.7249,-1.24489 2.8169,-1.24489 1.0483,0 1.9661,0.39302 2.7523,1.17926 0.8299,0.74256 1.2449,1.74704 1.2449,3.01377 l 0.065,4.38991 c 0,0.13104 0.066,0.19689 0.1969,0.19689 h 6.0275 c 0.1311,0 0.1967,-0.0658 0.1967,-0.19689 v -4.38991 c 0,-2.35873 -0.6985,-4.45498 -2.0966,-6.28954 -1.3541,-1.83457 -3.0798,-3.07945 -5.1764,-3.73466 v -1.15548 c 0.084,-0.0412 0.1312,-0.11231 0.1312,-0.22066 v -3.8654 c 2.1404,-0.69888 3.8875,-1.94377 5.2416,-3.73465 1.3541,-1.834568 2.0309,-3.997177 2.0309,-6.486946 0,-2.184006 -0.5242,-3.996465 -1.5725,-5.43791 -1.0047,-1.441444 -2.4022,-2.642436 -4.1931,-3.603397 l -5.4384,-3.014287 c -1.2664,-0.742563 -2.14,-1.485209 -2.6205,-2.22777 -0.4802,-0.786244 -0.7209,-1.725396 -0.7209,-2.8174 0,-1.135684 0.3716,-2.118217 1.1141,-2.948141 0.7863,-0.829921 1.7249,-1.244886 2.8169,-1.244886 1.0483,0 1.9664,0.393015 2.7526,1.179256 0.8298,0.742564 1.2446,1.747047 1.2446,3.013771 l 0.065,4.389914 c 0,0.13104 0.066,0.196887 0.1967,0.196887 h 6.0274 c 0.1311,0 0.1969,-0.06585 0.1969,-0.196887 v -4.389914 c 0,-2.358729 -0.6987,-4.454972 -2.0965,-6.289537 -0.7665,-1.0385 -1.6522,-1.888099 -2.6567,-2.548684 z m 60.0175,1.899626 c -0.1672,0.187743 -0.3311,0.381381 -0.4898,0.583428 -1.3978,1.790885 -2.0965,3.909078 -2.0965,6.355167 0,2.227686 0.4583,4.23717 1.3756,6.028055 0.9609,1.790885 2.4682,3.254229 4.5211,4.389914 1.0484,0.567841 2.184,1.179311 3.4071,1.834512 1.223,0.655204 2.1183,1.157444 2.6861,1.506887 1.7035,0.960961 2.5554,2.118571 2.5554,3.472656 0,1.048321 -0.393,2.009423 -1.1793,2.883027 -0.7425,0.829924 -1.6817,1.244886 -2.8173,1.244886 -1.0921,0 -2.0532,-0.414962 -2.8831,-1.244886 -0.7862,-0.873604 -1.1792,-1.878603 -1.1792,-3.014287 v -2.489769 c 0,-0.174723 -0.066,-0.262001 -0.1969,-0.262001 h -5.9619 c -0.1747,0 -0.2625,0.08728 -0.2625,0.262001 v 2.489769 c -10e-5,2.402409 0.6992,4.565018 2.097,6.486946 1.4414,1.87824 3.2539,3.14456 5.4379,3.79977 v 1.07486 c -0.086,0.0367 -0.1308,0.11338 -0.1308,0.23565 v 3.80028 c -2.1403,0.65521 -3.9313,1.90009 -5.3727,3.73466 -1.3978,1.79088 -2.0965,3.90908 -2.0965,6.35517 0,2.22768 0.4583,4.23717 1.3756,6.028052 0.9609,1.79089 2.4682,3.25423 4.5211,4.38992 1.0484,0.56784 2.184,1.17931 3.4071,1.83451 1.223,0.65521 2.1183,1.15745 2.6861,1.50689 1.7035,0.96096 2.5554,2.11857 2.5554,3.47266 0,1.04832 -0.393,2.00942 -1.1793,2.88302 -0.7425,0.82993 -1.6817,1.24489 -2.8173,1.24489 -1.0921,0 -2.0532,-0.41496 -2.8831,-1.24489 -0.7862,-0.8736 -1.1792,-1.87808 -1.1792,-3.01376 v -2.48978 c 0,-0.17472 -0.066,-0.26251 -0.1969,-0.26251 h -5.9619 c -0.1747,0 -0.2625,0.0878 -0.2625,0.26251 v 2.48978 c -10e-5,2.4024 0.6992,4.5645 2.097,6.48642 1.4414,1.87825 3.2539,3.14457 5.4379,3.79977 v 1.07487 c -0.086,0.0367 -0.1308,0.11338 -0.1308,0.23564 v 3.80029 c -2.1403,0.6552 -3.9313,1.90009 -5.3727,3.73465 -1.3978,1.79089 -2.0965,3.9096 -2.0965,6.35569 0,2.22769 0.4583,4.23665 1.3756,6.02754 0.9609,1.79088 2.4682,3.25423 4.5211,4.38991 1.0484,0.56784 2.184,1.17931 3.4071,1.83451 1.223,0.65521 2.1183,1.15745 2.6861,1.50689 1.7035,0.96096 2.5554,2.11857 2.5554,3.47265 0,1.04833 -0.393,2.00943 -1.1793,2.88303 -0.7425,0.82993 -1.6817,1.24489 -2.8173,1.24489 -1.0921,0 -2.0532,-0.41496 -2.8831,-1.24489 -0.7862,-0.8736 -1.1792,-1.87808 -1.1792,-3.01377 v -2.48977 c 0,-0.17472 -0.066,-0.26251 -0.1969,-0.26251 h -5.9619 c -0.1747,0 -0.2625,0.0878 -0.2625,0.26251 v 2.48977 c -10e-5,2.40241 0.6992,4.5645 2.097,6.48643 1.4414,1.87824 3.2539,3.14457 5.4379,3.79977 v 1.07487 c -0.086,0.0367 -0.1308,0.11338 -0.1308,0.23564 v 3.80029 c -2.1403,0.6552 -3.9313,1.90009 -5.3727,3.73465 -1.3978,1.79089 -2.0965,3.9096 -2.0965,6.35568 0,2.22769 0.4583,4.23666 1.3756,6.02754 0.9609,1.79089 2.4682,3.25423 4.5211,4.38992 1.0484,0.56784 2.184,1.17931 3.4071,1.83451 1.223,0.6552 2.1183,1.15745 2.6861,1.50689 1.7035,0.96096 2.5554,2.11857 2.5554,3.47265 0,0.58418 -0.1269,1.14026 -0.371,1.67018 a 85.738067,86.169097 0 0 0 6.6828,-4.47208 c -0.2584,-1.03851 -0.6803,-1.96105 -1.2666,-2.76727 -1.0047,-1.44144 -2.4027,-2.64243 -4.1936,-3.60339 l -5.4379,-3.01429 c -1.2667,-0.74256 -2.1405,-1.48469 -2.621,-2.22726 -0.4805,-0.78624 -0.7209,-1.72539 -0.7209,-2.8174 0,-1.13568 0.3716,-2.11873 1.1142,-2.94865 0.7862,-0.82992 1.7253,-1.24489 2.8174,-1.24489 1.0483,0 1.9655,0.39302 2.7517,1.17926 0.8299,0.74256 1.2449,1.74756 1.2449,3.01428 l 0.066,4.3894 c 0,0.13104 0.065,0.19689 0.1964,0.19689 h 6.0281 c 0.131,0 0.1963,-0.0658 0.1963,-0.19689 v -4.3894 c 0,-2.35872 -0.6987,-4.45548 -2.0965,-6.29005 -1.3541,-1.83456 -3.0798,-3.07945 -5.1764,-3.73466 v -1.15548 c 0.084,-0.0411 0.1312,-0.11221 0.1312,-0.22066 v -3.86539 c 2.1404,-0.69889 3.8875,-1.94378 5.2416,-3.73466 1.3541,-1.83457 2.0314,-3.99666 2.0314,-6.48643 0,-2.184 -0.5242,-3.99698 -1.5725,-5.43842 -1.0047,-1.44145 -2.4027,-2.64244 -4.1936,-3.6034 l -5.4379,-3.01429 c -1.2667,-0.74256 -2.1405,-1.48521 -2.621,-2.22777 -0.4805,-0.78624 -0.7209,-1.72488 -0.7209,-2.81688 0,-1.13568 0.3716,-2.11874 1.1142,-2.94866 0.7862,-0.82992 1.7253,-1.24489 2.8174,-1.24489 1.0483,0 1.9655,0.39302 2.7517,1.17926 0.8299,0.74256 1.2449,1.74757 1.2449,3.01429 l 0.066,4.38939 c 0,0.13104 0.065,0.19689 0.1964,0.19689 h 6.0281 c 0.131,0 0.1963,-0.0658 0.1963,-0.19689 v -4.38939 c 0,-2.35873 -0.6987,-4.45549 -2.0965,-6.29006 -1.3541,-1.83456 -3.0798,-3.07945 -5.1764,-3.73465 v -1.15549 c 0.084,-0.0411 0.1312,-0.11221 0.1312,-0.22066 v -3.86539 c 2.1404,-0.69889 3.8875,-1.94377 5.2416,-3.73466 1.3541,-1.83456 2.0314,-3.99666 2.0314,-6.48642 0,-2.18401 -0.5242,-3.99699 -1.5725,-5.43843 -1.0047,-1.44145 -2.4027,-2.64245 -4.1936,-3.60341 l -5.4379,-3.014282 c -1.2667,-0.74257 -2.1405,-1.48521 -2.621,-2.22777 -0.4805,-0.78625 -0.7209,-1.7254 -0.7209,-2.8174 0,-1.13569 0.3716,-2.11822 1.1142,-2.94814 0.7862,-0.82993 1.7253,-1.24489 2.8174,-1.24489 1.0483,0 1.9655,0.39302 2.7517,1.17926 0.8299,0.74256 1.2449,1.74704 1.2449,3.01377 l 0.066,4.38991 c 0,0.13104 0.065,0.19689 0.1964,0.19689 h 6.0281 c 0.131,0 0.1963,-0.0658 0.1963,-0.19689 v -4.38991 c 0,-2.35873 -0.6987,-4.45498 -2.0965,-6.28954 -1.3541,-1.83457 -3.0798,-3.07945 -5.1764,-3.73466 v -1.15548 c 0.084,-0.0411 0.1312,-0.11221 0.1312,-0.22066 v -3.8654 c 2.1404,-0.69888 3.8875,-1.94377 5.2416,-3.73465 1.3541,-1.834568 2.0314,-3.997177 2.0314,-6.486946 0,-2.184006 -0.5242,-3.996465 -1.5725,-5.43791 -1.0047,-1.441444 -2.4027,-2.642436 -4.1936,-3.603397 l -5.4379,-3.014287 c -1.2667,-0.742563 -2.1405,-1.485209 -2.621,-2.22777 -0.4805,-0.786244 -0.7209,-1.725396 -0.7209,-2.8174 0,-1.135684 0.3716,-2.118217 1.1142,-2.948141 0.4189,-0.442264 0.8827,-0.762868 1.3885,-0.969449 a 85.738067,86.169097 0 0 0 -6.5335,-3.021005 z m 11.8758,6.015654 c 0.055,0.290642 0.083,0.597755 0.083,0.922941 l 0.066,4.389914 c 0,0.13104 0.065,0.196887 0.1964,0.196887 h 6.0281 c 0.131,0 0.1963,-0.06585 0.1963,-0.196887 v -0.885735 a 85.738067,86.169097 0 0 0 -6.5696,-4.42712 z m -91.7102,1.837098 a 85.738067,86.169097 0 0 0 -5.1081,3.672644 h 4.9121 c 0.131,0 0.1963,-0.06585 0.1963,-0.196887 z m -7.8677,5.907648 a 85.738067,86.169097 0 0 0 -5.1589,4.731496 c 0.4411,0.23704 0.8325,0.449448 1.299,0.69918 1.2228,0.655204 2.1183,1.157444 2.6858,1.506887 1.7036,0.960961 2.5554,2.118571 2.5554,3.472656 0,1.048321 -0.393,2.009423 -1.1792,2.883027 -0.7426,0.829924 -1.6817,1.244886 -2.8174,1.244886 -1.092,0 -2.0531,-0.414962 -2.8831,-1.244886 -0.7862,-0.873604 -1.1792,-1.878603 -1.1792,-3.014287 v -2.489769 c 0,-0.174723 -0.066,-0.262001 -0.1968,-0.262001 h -0.9701 a 85.738067,86.169097 0 0 0 -3.5943,4.175972 85.738067,86.169097 0 0 0 -1.2571,1.596803 c 0.3442,1.230984 0.9093,2.386511 1.694,3.465941 1.4414,1.87824 3.2539,3.14456 5.4379,3.79977 v 1.07486 c -0.086,0.0367 -0.1307,0.11338 -0.1307,0.23565 v 3.80028 c -2.1404,0.65521 -3.9314,1.90009 -5.3728,3.73466 -1.3978,1.79088 -2.0965,3.90908 -2.0965,6.35517 0,2.22768 0.4583,4.23717 1.3756,6.028052 0.9609,1.79089 2.4682,3.25423 4.5212,4.38992 1.0483,0.56784 2.1839,1.17931 3.407,1.83451 1.223,0.65521 2.1183,1.15745 2.6861,1.50689 1.7035,0.96096 2.5554,2.11857 2.5554,3.47266 0,1.04832 -0.393,2.00942 -1.1792,2.88302 -0.7426,0.82993 -1.6817,1.24489 -2.8174,1.24489 -1.092,0 -2.0531,-0.41496 -2.8831,-1.24489 -0.7862,-0.8736 -1.1792,-1.87808 -1.1792,-3.01376 v -2.48978 c 0,-0.17472 -0.066,-0.26251 -0.1969,-0.26251 h -5.9619 c -0.1747,0 -0.2625,0.0878 -0.2625,0.26251 v 2.48978 c 0,2.4024 0.6992,4.5645 2.097,6.48642 1.4414,1.87825 3.2539,3.14457 5.4379,3.79977 v 1.07487 c -0.086,0.0367 -0.1307,0.11338 -0.1307,0.23564 v 3.80029 c -2.1404,0.6552 -3.9314,1.90009 -5.3728,3.73465 -1.3978,1.79089 -2.0965,3.9096 -2.0965,6.35569 0,2.22769 0.4583,4.23665 1.3756,6.02754 0.9609,1.79088 2.4682,3.25423 4.5212,4.38991 1.0483,0.56784 2.1839,1.17931 3.407,1.83451 1.223,0.65521 2.1183,1.15745 2.6861,1.50689 1.7035,0.96096 2.5554,2.11857 2.5554,3.47265 0,1.04833 -0.393,2.00943 -1.1792,2.88303 -0.7426,0.82993 -1.6817,1.24489 -2.8174,1.24489 -1.092,0 -2.0531,-0.41496 -2.8831,-1.24489 -0.7862,-0.8736 -1.1792,-1.87808 -1.1792,-3.01377 v -2.48977 c 0,-0.17472 -0.066,-0.26251 -0.1969,-0.26251 h -5.9619 c -0.1747,0 -0.2625,0.0878 -0.2625,0.26251 v 2.48977 c 0,2.40241 0.6992,4.5645 2.097,6.48643 1.4414,1.87824 3.2539,3.14457 5.4379,3.79977 v 1.07487 c -0.086,0.0367 -0.1307,0.11338 -0.1307,0.23564 v 3.80029 c -2.1404,0.6552 -3.9314,1.90009 -5.3728,3.73465 -0.8851,1.13403 -1.4892,2.39993 -1.8139,3.79667 a 85.738067,86.169097 0 0 0 13.9924,14.46475 85.738067,86.169097 0 0 0 6.8839,5.06946 c -0.02,-2.12701 -0.5406,-3.89963 -1.5684,-5.31286 -1.0046,-1.44144 -2.4027,-2.64243 -4.1936,-3.60339 l -5.4379,-3.01429 c -1.2667,-0.74256 -2.1405,-1.48469 -2.621,-2.22726 -0.4805,-0.78624 -0.7209,-1.72539 -0.7209,-2.8174 0,-1.13568 0.3716,-2.11873 1.1142,-2.94865 0.7862,-0.82992 1.7254,-1.24489 2.8174,-1.24489 1.0483,0 1.9655,0.39302 2.7517,1.17926 0.8299,0.74256 1.2449,1.74756 1.2449,3.01428 l 0.066,4.3894 c 0,0.13104 0.065,0.19689 0.1964,0.19689 h 6.0281 c 0.131,0 0.1963,-0.0658 0.1963,-0.19689 v -4.3894 c 0,-2.35872 -0.6987,-4.45548 -2.0965,-6.29005 -1.3541,-1.83456 -3.0797,-3.07945 -5.1764,-3.73466 v -1.15548 c 0.084,-0.0411 0.1313,-0.11221 0.1313,-0.22066 v -3.86539 c 2.1403,-0.69889 3.8874,-1.94378 5.2415,-3.73466 1.3541,-1.83457 2.0314,-3.99666 2.0314,-6.48643 0,-2.184 -0.5242,-3.99698 -1.5725,-5.43842 -1.0046,-1.44145 -2.4027,-2.64244 -4.1936,-3.6034 l -5.4379,-3.01429 c -1.2667,-0.74256 -2.1405,-1.48521 -2.621,-2.22777 -0.4805,-0.78624 -0.7209,-1.72488 -0.7209,-2.81688 0,-1.13568 0.3716,-2.11874 1.1142,-2.94866 0.7862,-0.82992 1.7254,-1.24489 2.8174,-1.24489 1.0483,0 1.9655,0.39302 2.7517,1.17926 0.8299,0.74256 1.2449,1.74757 1.2449,3.01429 l 0.066,4.38939 c 0,0.13104 0.065,0.19689 0.1964,0.19689 h 6.0281 c 0.131,0 0.1963,-0.0658 0.1963,-0.19689 v -4.38939 c 0,-2.35873 -0.6987,-4.45549 -2.0965,-6.29006 -1.3541,-1.83456 -3.0797,-3.07945 -5.1764,-3.73465 v -1.15549 c 0.084,-0.0411 0.1313,-0.11221 0.1313,-0.22066 v -3.86539 c 2.1403,-0.69889 3.8874,-1.94377 5.2415,-3.73466 1.3541,-1.83456 2.0314,-3.99666 2.0314,-6.48642 0,-2.18401 -0.5242,-3.99699 -1.5725,-5.43843 -1.0046,-1.44145 -2.4027,-2.64245 -4.1936,-3.60341 l -5.4379,-3.014282 c -1.2667,-0.74257 -2.1405,-1.48521 -2.621,-2.22777 -0.4805,-0.78625 -0.7209,-1.7254 -0.7209,-2.8174 0,-1.13569 0.3716,-2.11822 1.1142,-2.94814 0.7862,-0.82993 1.7254,-1.24489 2.8174,-1.24489 1.0483,0 1.9655,0.39302 2.7517,1.17926 0.8299,0.74256 1.2449,1.74704 1.2449,3.01377 l 0.066,4.38991 c 0,0.13104 0.065,0.19689 0.1964,0.19689 h 6.0281 c 0.131,0 0.1963,-0.0658 0.1963,-0.19689 v -4.38991 c 0,-2.35873 -0.6987,-4.45498 -2.0965,-6.28954 -1.3541,-1.83457 -3.0797,-3.07945 -5.1764,-3.73466 v -1.15548 c 0.084,-0.0411 0.1313,-0.11221 0.1313,-0.22066 v -3.8654 c 2.1403,-0.69888 3.8874,-1.94377 5.2415,-3.73465 1.3541,-1.834568 2.0314,-3.997177 2.0314,-6.486946 0,-2.184006 -0.5242,-3.996465 -1.5725,-5.43791 -1.0046,-1.441444 -2.4027,-2.642436 -4.1936,-3.603397 z m 110.0129,7.527189 c -0.1747,0 -0.262,0.08728 -0.262,0.262001 v 2.489769 c 0,2.402409 0.6988,4.565018 2.0966,6.486946 1.4414,1.87824 3.2545,3.14456 5.4384,3.79977 v 1.07486 c -0.086,0.0367 -0.1313,0.11338 -0.1313,0.23565 v 3.80028 c -2.1403,0.65521 -3.9308,1.90009 -5.3723,3.73466 -1.3977,1.79088 -2.097,3.90908 -2.097,6.35517 0,2.22768 0.4592,4.23717 1.3762,6.028052 0.9609,1.79089 2.4676,3.25423 4.5206,4.38992 1.0483,0.56784 2.1848,1.17931 3.4076,1.83451 1.223,0.65521 2.1185,1.15745 2.6864,1.50689 1.7035,0.96096 2.5554,2.11857 2.5554,3.47266 0,1.04832 -0.3935,2.00942 -1.1798,2.88302 -0.7426,0.82993 -1.6812,1.24489 -2.8169,1.24489 -1.092,0 -2.0531,-0.41496 -2.883,-1.24489 -0.7862,-0.8736 -1.1792,-1.87808 -1.1792,-3.01376 v -2.48978 c 0,-0.17472 -0.066,-0.26251 -0.197,-0.26251 h -5.9624 c -0.1747,0 -0.262,0.0878 -0.262,0.26251 v 2.48978 c 0,2.4024 0.6988,4.5645 2.0966,6.48642 1.4414,1.87825 3.2544,3.14457 5.4384,3.79977 v 1.07487 c -0.086,0.0367 -0.1313,0.11338 -0.1313,0.23564 v 3.80029 c -2.1403,0.6552 -3.9308,1.90009 -5.3723,3.73465 -1.3977,1.79089 -2.097,3.9096 -2.097,6.35569 0,2.22769 0.4589,4.23665 1.3762,6.02754 0.9609,1.79088 2.4676,3.25423 4.5206,4.38991 1.0483,0.56784 2.1845,1.17931 3.4075,1.83451 1.2231,0.65521 2.1183,1.15745 2.6862,1.50689 1.7035,0.96096 2.5554,2.11857 2.5554,3.47265 0,1.04833 -0.3935,2.00943 -1.1798,2.88303 -0.7426,0.82993 -1.6812,1.24489 -2.8169,1.24489 -1.092,0 -2.0531,-0.41496 -2.883,-1.24489 -0.7862,-0.8736 -1.1792,-1.87808 -1.1792,-3.01377 v -2.48977 c 0,-0.17472 -0.066,-0.26251 -0.197,-0.26251 h -5.9624 c -0.1747,0 -0.262,0.0878 -0.262,0.26251 v 2.48977 c 0,2.40241 0.6988,4.5645 2.0966,6.48643 1.4414,1.87824 3.2544,3.14457 5.4384,3.79977 v 1.07487 c -0.086,0.0367 -0.1313,0.11338 -0.1313,0.23564 v 3.80029 c -2.1403,0.6552 -3.9308,1.90009 -5.3723,3.73465 -1.3977,1.79089 -2.097,3.9096 -2.097,6.35568 0,2.22769 0.4589,4.23666 1.3762,6.02754 0.5078,0.9465 1.1699,1.8007 1.9828,2.56419 a 85.738067,86.169097 0 0 0 4.8307,-4.80901 c -0.356,-0.32189 -0.6429,-0.64342 -0.8511,-0.96532 -0.4805,-0.78624 -0.7209,-1.72539 -0.7209,-2.8174 0,-1.13568 0.3716,-2.11873 1.1141,-2.94865 0.7863,-0.82992 1.7254,-1.24489 2.8174,-1.24489 1.0483,0 1.9655,0.39302 2.7518,1.17926 0.1165,0.10421 0.2223,0.21516 0.3225,0.32969 a 85.738067,86.169097 0 0 0 3.7388,-5.32629 c -1.0458,-0.91769 -2.2463,-1.58988 -3.6029,-2.01383 v -1.15548 c 0.084,-0.0412 0.1312,-0.1123 0.1312,-0.22066 v -3.86539 c 2.1403,-0.69889 3.8875,-1.94378 5.2416,-3.73466 1.354,-1.83457 2.0308,-3.99666 2.0308,-6.48643 0,-2.184 -0.5241,-3.99698 -1.5725,-5.43842 -1.0046,-1.44145 -2.4021,-2.64244 -4.193,-3.6034 l -5.4384,-3.01429 c -1.2667,-0.74256 -2.1401,-1.48521 -2.6205,-2.22777 -0.4805,-0.78624 -0.7209,-1.72488 -0.7209,-2.81688 0,-1.13568 0.3716,-2.11874 1.1141,-2.94866 0.7863,-0.82992 1.7254,-1.24489 2.8174,-1.24489 1.0483,0 1.9655,0.39302 2.7518,1.17926 0.8299,0.74256 1.2449,1.74757 1.2449,3.01429 l 0.065,4.38939 c 0,0.13104 0.066,0.19689 0.1969,0.19689 h 6.0275 c 0.1311,0 0.1969,-0.0658 0.1969,-0.19689 v -4.38939 c 0,-2.35873 -0.6987,-4.45549 -2.0965,-6.29006 -1.3541,-1.83456 -3.0798,-3.07945 -5.1764,-3.73465 v -1.15549 c 0.084,-0.0412 0.1312,-0.1123 0.1312,-0.22066 v -3.86539 c 2.1403,-0.69889 3.8875,-1.94377 5.2416,-3.73466 1.354,-1.83456 2.0308,-3.99666 2.0308,-6.48642 0,-2.18401 -0.5241,-3.99699 -1.5725,-5.43843 -1.0046,-1.44145 -2.4021,-2.64245 -4.193,-3.60341 l -5.4384,-3.014282 c -1.2667,-0.74257 -2.1401,-1.48521 -2.6205,-2.22777 -0.4805,-0.78625 -0.7209,-1.7254 -0.7209,-2.8174 0,-1.13569 0.3716,-2.11822 1.1141,-2.94814 0.7863,-0.82993 1.7254,-1.24489 2.8174,-1.24489 1.0483,0 1.9655,0.39302 2.7518,1.17926 0.8299,0.74256 1.2449,1.74704 1.2449,3.01377 l 0.065,4.38991 c 0,0.13104 0.066,0.19689 0.1969,0.19689 h 6.0272 c 0.1313,0 0.1969,-0.0658 0.1969,-0.19689 v -4.38991 c 0,-2.35873 -0.6987,-4.45498 -2.0965,-6.28954 -1.3541,-1.83457 -3.0798,-3.07945 -5.1764,-3.73466 v -1.15548 c 0.084,-0.0412 0.1312,-0.11231 0.1312,-0.22066 v -3.8654 c 1.2344,-0.40305 2.337,-0.9892 3.3099,-1.75545 a 85.738067,86.169097 0 0 0 -3.8504,-5.435839 c -0.7401,0.818476 -1.6731,1.228866 -2.8009,1.228866 -1.092,0 -2.0531,-0.414962 -2.883,-1.244886 -0.7862,-0.873604 -1.1792,-1.878603 -1.1792,-3.014287 v -2.489769 c 0,-0.174723 -0.066,-0.262001 -0.197,-0.262001 z m -131.331,19.494936 a 85.738067,86.169097 0 0 0 -2.775,6.0818 c 0.601,0.69838 0.9043,1.58438 0.9043,2.66237 l 0.066,4.38991 c 0,0.13104 0.065,0.19689 0.1963,0.19689 h 6.0281 c 0.131,0 0.1964,-0.0658 0.1964,-0.19689 v -4.38991 c 0,-2.35873 -0.6987,-4.45498 -2.0965,-6.28954 -0.7312,-0.99059 -1.5716,-1.80789 -2.5193,-2.45463 z m 155.8324,6.29884 c -0.1711,0.77548 -0.2589,1.58967 -0.2589,2.44533 0,2.22768 0.4589,4.23717 1.3761,6.028052 0.6479,1.20736 1.5446,2.26543 2.6887,3.175 a 85.738067,86.169097 0 0 0 -3.8059,-11.648382 z m -161.4863,7.935432 a 85.738067,86.169097 0 0 0 -1.6934,6.63578 c 0.084,0.0448 0.1507,0.0814 0.2351,0.1266 1.223,0.65521 2.1184,1.15745 2.6861,1.50689 1.7036,0.96096 2.5554,2.11857 2.5554,3.47266 0,1.04832 -0.393,2.00942 -1.1792,2.88302 -0.7426,0.82993 -1.6817,1.24489 -2.8174,1.24489 -1.0586,0 -1.9932,-0.3936 -2.8055,-1.17357 a 85.738067,86.169097 0 0 0 -0.5313,7.07709 c 0.1281,0.0436 0.2574,0.0848 0.3881,0.12402 v 1.07487 c -0.085,0.0367 -0.1307,0.11342 -0.1307,0.23564 v 3.80029 c -0.092,0.0282 -0.183,0.059 -0.2739,0.0894 a 85.738067,86.169097 0 0 0 0.4899,7.10861 c 0.016,-0.0185 0.03,-0.038 0.046,-0.0563 0.7862,-0.82992 1.7254,-1.24489 2.8174,-1.24489 1.0483,0 1.9655,0.39302 2.7517,1.17926 0.83,0.74256 1.2449,1.74757 1.2449,3.01429 l 0.066,4.38939 c 0,0.13104 0.065,0.19689 0.1963,0.19689 h 6.0281 c 0.131,0 0.1964,-0.0658 0.1964,-0.19689 v -4.38939 c 0,-2.35873 -0.6987,-4.45549 -2.0965,-6.29006 -1.3541,-1.83456 -3.0793,-3.07945 -5.176,-3.73465 v -1.15549 c 0.084,-0.0412 0.1308,-0.1123 0.1308,-0.22066 v -3.86539 c 2.1403,-0.69889 3.8874,-1.94377 5.2415,-3.73466 1.3541,-1.83456 2.0314,-3.99666 2.0314,-6.48642 0,-2.18401 -0.5242,-3.99699 -1.5725,-5.43843 -1.0046,-1.44145 -2.4023,-2.64245 -4.1935,-3.60341 z m 161.555,8.8589 c -0.1747,0 -0.2618,0.0878 -0.2618,0.26251 v 2.48978 c 0,2.4024 0.6986,4.5645 2.0966,6.48642 1.2129,1.58046 2.69,2.72561 4.4287,3.4401 a 85.738067,86.169097 0 0 0 -1.4048,-12.67881 z m 6.2818,18.45313 c -1.7642,0.70491 -3.2691,1.8478 -4.5128,3.4308 -1.3976,1.79089 -2.0966,3.9096 -2.0966,6.35569 0,2.22769 0.4589,4.23665 1.3761,6.02754 0.6238,1.16257 1.4792,2.18621 2.5632,3.07268 a 85.738067,86.169097 0 0 0 2.6701,-18.88671 z m -169.8189,14.05444 a 85.738067,86.169097 0 0 0 2.2509,8.93279 c 0.3733,0.21114 0.711,0.40538 0.9592,0.55811 1.7037,0.96096 2.5552,2.11857 2.5552,3.47265 0,1.00647 -0.3659,1.93168 -1.0905,2.7771 a 85.738067,86.169097 0 0 0 2.8007,6.21925 c 1.1014,-0.6826 2.0606,-1.56165 2.8761,-2.64066 1.3541,-1.83457 2.0315,-3.99666 2.0315,-6.48643 0,-2.184 -0.5243,-3.99698 -1.5725,-5.43842 -1.0045,-1.44145 -2.4024,-2.64244 -4.1936,-3.6034 l -5.4377,-3.01429 c -0.442,-0.25903 -0.8333,-0.51767 -1.1793,-0.7767 z m 163.5371,10.08053 c -0.1747,0 -0.2618,0.0878 -0.2618,0.26251 v 2.48977 c 0,0.96669 0.1151,1.89337 0.3415,2.78226 a 85.738067,86.169097 0 0 0 2.0085,-5.53454 z m -49.1395,42.58809 c -0.1748,0 -0.2626,0.0878 -0.2626,0.26252 v 2.48977 c -10e-5,2.40241 0.6992,4.5645 2.097,6.48643 0.268,0.34878 0.5487,0.67576 0.8418,0.98236 a 85.738067,86.169097 0 0 0 6.9148,-3.26336 c -0.835,-0.13145 -1.5869,-0.5255 -2.2531,-1.19166 -0.7862,-0.8736 -1.1792,-1.87809 -1.1792,-3.01377 v -2.48977 c 0,-0.17472 -0.066,-0.26252 -0.1967,-0.26252 z" />
        <text
           xml:space="preserve"
           style="font-style:normal;font-variant:normal;font-weight:bold;font-stretch:normal;font-size:156.752px;line-height:52.4731;font-family:'Microsoft YaHei UI';-inkscape-font-specification:'Microsoft YaHei UI Bold';text-align:center;text-anchor:middle;opacity:0.998;fill:#ffffff;fill-opacity:1;stroke:none;stroke-width:3.91878"
           x="1576.759"
           y="183.10258"
           id="text60-4-3-0"
           transform="scale(1.0294112,0.97142911)"
           inkscape:export-filename="C:\Users\somaisumpouquinhohd\Desktop\logosemtxt.png"
           inkscape:export-xdpi="39.680035"
           inkscape:export-ydpi="39.680035"><tspan
             sodipodi:role="line"
             id="tspan58-6-8-4"
             x="1576.759"
             y="183.10258"
             style="font-style:normal;font-variant:normal;font-weight:bold;font-stretch:normal;font-family:Staatliches;-inkscape-font-specification:'Staatliches Bold';text-align:center;text-anchor:middle;fill:#ffffff;fill-opacity:1;stroke-width:3.91878">CN</tspan></text>
        <path
           id="circle1576"
           style="opacity:1;fill:#00457a;fill-opacity:1;stroke-width:0;stroke-miterlimit:4;stroke-dasharray:none"
           d="M 1625.1569,24.152416 A 100.65168,100.65168 0 0 0 1524.653,124.80363 100.65168,100.65168 0 0 0 1625.3047,225.45537 100.65168,100.65168 0 0 0 1725.9564,124.80363 100.65168,100.65168 0 0 0 1625.3047,24.152416 a 100.65168,100.65168 0 0 0 -0.1478,0 z m -0.01,14.342794 a 86.308699,86.308699 0 0 1 0.154,0 86.308699,86.308699 0 0 1 86.3084,86.30842 86.308699,86.308699 0 0 1 -86.3084,86.30895 86.308699,86.308699 0 0 1 -86.3089,-86.30895 86.308699,86.308699 0 0 1 86.1549,-86.30842 z" />
      </g>
    </g>
    <text
       xml:space="preserve"
       style="font-style:normal;font-weight:normal;font-size:49.3197px;line-height:1.25;font-family:sans-serif;fill:#005dfa;fill-opacity:1;stroke:none;stroke-width:1.233"
       x="659.01764"
       y="83.866814"
       id="text273"
       transform="scale(1.0019374,0.99806635)"><tspan
         sodipodi:role="line"
         x="659.01764"
         y="83.866814"
         style="font-style:normal;font-variant:normal;font-weight:normal;font-stretch:normal;font-family:Staatliches;-inkscape-font-specification:Staatliches;fill:#005dfa;fill-opacity:1;stroke-width:1.233"
         id="tspan1141" /></text>
    <text
       xml:space="preserve"
       style="font-size:10.5833px;line-height:1.25;font-family:Staatliches;-inkscape-font-specification:Staatliches;stroke-width:0.264583"
       x="1622.2466"
       y="36.165882"
       id="text1261"><tspan
         sodipodi:role="line"
         id="tspan1259"
         x="1622.2466"
         y="36.165882"
         style="stroke-width:0.264583" /></text>
  </g>
</svg>
